<?xml version="1.0" encoding="UTF-8"?><svg id="a" xmlns="http://www.w3.org/2000/svg" viewBox="0 0 123.87 121.02"><defs><style>.b{fill:#53a3e6;}.c{fill:#218bd8;}</style></defs><path d="M123.14,112.44L67.38,11.04c-2.4-4.37-8.5-4.37-10.9,0L.73,112.44c-2.11,3.83,.58,8.59,4.85,8.59H118.29c4.27,0,6.96-4.75,4.85-8.59Zm-61.47-15.12c-9.91,0-17.94-6.35-17.94-14.19s8.03-14.19,17.94-14.19,17.94,6.35,17.94,14.19-8.03,14.19-17.94,14.19Z"/><path class="b" d="M61.67,89.53c-9.91,0-17.94-6.35-17.94-14.19s8.03-14.19,17.94-14.19V0c-2.03,.09-4.03,1.17-5.18,3.26L.73,104.66c-2.11,3.83,.58,8.59,4.85,8.59H61.67v-23.71Z"/><path class="c" d="M61.66,89.53c9.91,0,17.94-6.35,17.94-14.19s-8.03-14.19-17.94-14.19V0c2.03,.09,4.03,1.17,5.18,3.26l55.75,101.4c2.11,3.83-.58,8.59-4.85,8.59H61.66v-23.71Z"/></svg>