<?xml version="1.0" encoding="UTF-8" standalone="no"?>
<svg
   xmlns:dc="http://purl.org/dc/elements/1.1/"
   xmlns:cc="http://creativecommons.org/ns#"
   xmlns:rdf="http://www.w3.org/1999/02/22-rdf-syntax-ns#"
   xmlns:svg="http://www.w3.org/2000/svg"
   xmlns="http://www.w3.org/2000/svg"
   xmlns:sodipodi="http://sodipodi.sourceforge.net/DTD/sodipodi-0.dtd"
   xmlns:inkscape="http://www.inkscape.org/namespaces/inkscape"
   width="58"
   height="58"
   viewBox="0 0 15.345833 15.345834"
   version="1.1"
   id="svg873"
   inkscape:version="1.0.2-2 (e86c870879, 2021-01-15)"
   sodipodi:docname="poi_quicktravel_n9.svg"
   inkscape:export-filename="D:\2D Art Source\Graphics_UI\Icons\PNG\Minimap\poi_quicktravel.png"
   inkscape:export-xdpi="96"
   inkscape:export-ydpi="96">
  <defs
     id="defs867" />
  <sodipodi:namedview
     id="base"
     pagecolor="#ffffff"
     bordercolor="#666666"
     borderopacity="1.0"
     inkscape:pageopacity="0"
     inkscape:pageshadow="2"
     inkscape:zoom="16.000001"
     inkscape:cx="8.7132681"
     inkscape:cy="25.627025"
     inkscape:document-units="mm"
     inkscape:current-layer="layer1"
     inkscape:document-rotation="0"
     showgrid="true"
     units="px"
     showguides="true"
     inkscape:guide-bbox="true"
     inkscape:showpageshadow="false"
     inkscape:snap-to-guides="true"
     inkscape:window-width="3440"
     inkscape:window-height="1387"
     inkscape:window-x="3832"
     inkscape:window-y="341"
     inkscape:window-maximized="1"
     inkscape:snap-bbox="true"
     inkscape:bbox-paths="true"
     inkscape:bbox-nodes="false"
     inkscape:snap-bbox-edge-midpoints="false"
     inkscape:snap-bbox-midpoints="true"
     inkscape:lockguides="true"
     inkscape:pagecheckerboard="true"
     inkscape:snap-others="true"
     inkscape:snap-global="true"
     inkscape:snap-grids="true"
     inkscape:snap-midpoints="true"
     inkscape:snap-intersection-paths="true">
    <inkscape:grid
       type="xygrid"
       id="grid1436" />
    <sodipodi:guide
       position="0.52916666,4.7625002"
       orientation="1,0"
       id="guide1470"
       inkscape:locked="true" />
    <sodipodi:guide
       position="6.3499999,14.816667"
       orientation="0,-1"
       id="guide1472"
       inkscape:locked="true" />
    <sodipodi:guide
       position="14.816666,10.054167"
       orientation="1,0"
       id="guide1474"
       inkscape:locked="true" />
    <sodipodi:guide
       position="7.6729165,0.52916669"
       orientation="0,-1"
       id="guide1476"
       inkscape:locked="true" />
    <sodipodi:guide
       position="7.6729165,6.6145836"
       orientation="1,0"
       id="guide1480"
       inkscape:locked="true" />
  </sodipodi:namedview>
  <metadata
     id="metadata870">
    <rdf:RDF>
      <cc:Work
         rdf:about="">
        <dc:format>image/svg+xml</dc:format>
        <dc:type
           rdf:resource="http://purl.org/dc/dcmitype/StillImage" />
        <dc:title></dc:title>
      </cc:Work>
    </rdf:RDF>
  </metadata>
  <g
     inkscape:label="Layer 1"
     inkscape:groupmode="layer"
     id="layer1"
     style="display:inline;opacity:0.998">
    <path
       id="path1524"
       style="fill:#ffffff;fill-rule:evenodd;stroke-width:0.145437;stop-color:#000000"
       d="m 3.4834943,2.2647761 a 5.9247369,5.9247374 45 0 0 0,8.3788449 l 4.1727539,4.172752 4.2060908,-4.172752 a 5.9247369,5.9247374 45 0 0 0,-8.3788449 5.9247369,5.9247374 45 0 0 -8.3788447,0 z" />
    <ellipse
       style="display:inline;fill:#007b32;fill-opacity:1;fill-rule:evenodd;stroke-width:0.126259;stop-color:#000000"
       id="path1524-3"
       cx="7.6729169"
       cy="6.4539032"
       ry="5.1324053"
       rx="5.1324048" />
    <g
       aria-label="2"
       id="text966"
       style="font-style:normal;font-weight:normal;font-size:5.98247px;line-height:1.25;font-family:sans-serif;display:inline;opacity:0.998;fill:#ffffff;fill-opacity:1;stroke:none;stroke-width:0.149563"
       transform="matrix(1.2254425,0,0,1.2254425,-2.0837045,-0.67311946)">
      <path
         id="path972"
         style="font-style:normal;font-variant:normal;font-weight:bold;font-stretch:normal;font-size:5.98247px;line-height:1.25;font-family:Roboto;-inkscape-font-specification:'Roboto Bold';display:inline;opacity:0.998;fill:#ffffff;fill-opacity:1;stroke:none;stroke-width:0.122048"
         d="m 9.6263581,3.7405145 v 0.6477252 h -0.647726 v 0.4318168 h 0.647726 V 5.4677817 H 10.058174 V 4.8200565 H 10.7059 V 4.3882397 H 10.058174 V 3.7405145 Z M 7.2467278,4.3397447 c -0.222482,0 -0.422932,0.052928 -0.600917,0.1594011 C 6.467825,4.60403 6.3288698,4.7520715 6.2287531,4.94277 6.1302255,5.1318796 6.0811594,5.3400527 6.0811594,5.5673021 c 0,0.3575598 0.091869,0.6421552 0.276211,0.8535127 0.1843424,0.2097686 0.4299964,0.3145854 0.7367034,0.3145854 0.239962,0 0.449596,-0.088429 0.62917,-0.2648252 -0.04926,0.5355454 -0.373319,0.8167972 -0.972431,0.8438142 l -0.152654,0.0025 v 0.57435 l 0.1691,-0.0021 c 0.5276,-0.022234 0.935282,-0.19867 1.222919,-0.529214 C 8.2778151,7.0293804 8.4215721,6.5746121 8.4215721,5.9961596 V 5.7414551 C 8.4199721,5.4649421 8.3699721,5.219288 8.2714491,5.0047521 8.1729211,4.790216 8.0349071,4.6257869 7.8569218,4.5113675 7.6789358,4.3969484 7.4755658,4.3397374 7.2467278,4.3397374 Z m -0.0051,0.5553737 c 0.14938,0 0.268605,0.064415 0.357598,0.1931369 0.08899,0.1287216 0.133678,0.3095386 0.133678,0.5431444 v 0.2838016 c -0.04132,0.081047 -0.102392,0.1502647 -0.183439,0.2074744 -0.07946,0.05721 -0.175091,0.085604 -0.286332,0.085604 -0.157326,-2e-7 -0.279472,-0.060132 -0.366875,-0.1809077 -0.08582,-0.122365 -0.129039,-0.2781297 -0.129039,-0.4672393 0,-0.1906985 0.04468,-0.3488648 0.133677,-0.474408 0.08899,-0.1271325 0.202474,-0.1906067 0.340732,-0.1906063 z" />
    </g>
  </g>
  <g
     inkscape:groupmode="layer"
     id="layer2"
     inkscape:label="Layer 2"
     style="display:inline" />
</svg>
